<svg width="249" height="71" viewBox="0 0 249 71" fill="none" xmlns="http://www.w3.org/2000/svg"><g clip-path="url(#clip0)" fill="#C4C4C4"><path d="M15.36 49.894v.007c-.008 0-2.227-.007-2.819 2.096a2266.18 2266.18 0 0 1-2.113 7.399h-.423s-1.564-5.443-2.113-7.406c-.593-2.104-2.82-2.096-2.82-2.096H0v16h5.073V56.39h.423l2.959 9.503h3.522l2.96-9.496h.422v9.496h5.073v-16H15.36zm18.53 0s-1.487.132-2.184 1.677l-3.593 7.825h-.423v-9.502h-5.073v16h4.791s1.557-.14 2.255-1.678l3.523-7.825h.422v9.503h5.073v-16h-4.79zm7.046 7.266v8.734h5.073v-5.1h5.496a5.486 5.486 0 0 0 5.178-3.634H40.936zm10.569-7.266H40.224c.564 3.046 2.868 5.491 5.848 6.288.676.181 1.388.28 2.12.28h8.695c.078-.364.113-.734.113-1.118 0-3.012-2.46-5.45-5.495-5.45z"/></g><g clip-path="url(#clip1)" fill="#C4C4C4"><path d="M152.865 15.94l-2.813 6.242H148l3.09-6.675c-1.453-.729-2.421-2.05-2.421-4.488 0-3.417 2.19-5.125 4.795-5.125h2.651v16.288h-1.775V15.94h-1.475zm1.475-8.565h-.946c-1.429 0-2.812.934-2.812 3.644 0 2.62 1.268 3.463 2.812 3.463h.946V7.375zm10.331 3.325v11.482h-1.775v-5.148h-2.675v5.148h-1.798V10.7h1.798v4.876h2.675V10.7h1.775zm9.245 13.738h-1.614v-2.256h-4.98v2.256h-1.613v-3.713h.714c1.06-2.438 1.176-5.992 1.176-9.045v-.98h5.395v10.024h.922v3.714zm-2.698-12.303h-2.005v.206c0 2.414-.115 5.945-1.083 8.383h3.089v-8.589h-.001zm7.655 10.207c-2.398 0-3.874-1.89-3.874-5.422 0-3.691 1.038-6.379 3.505-6.379 1.936 0 3.204 1.435 3.204 5.33v.98h-4.841c0 2.598.737 3.965 2.166 3.965 1.015 0 1.822-.456 2.283-.774l.415 1.365c-.737.57-1.706.935-2.858.935zm-1.984-6.949h2.974c0-1.959-.323-3.394-1.359-3.394-1.107 0-1.499 1.344-1.615 3.394zm8.462 1.07v5.72h-1.799V10.7h1.799v5.308l2.789-5.308h1.822l-2.882 5.4 3.297 6.082h-1.96l-3.066-5.718zm5.256-.021c0-3.6 1.407-5.901 4.127-5.901 1.038 0 1.637.273 2.144.592l-.253 1.686c-.484-.41-1.176-.797-1.914-.797-1.291 0-2.213 1.435-2.213 4.328 0 2.87.691 4.511 2.143 4.511.876 0 1.545-.342 1.96-.706l.415 1.321c-.622.524-1.36.866-2.421.866-2.49 0-3.988-1.982-3.988-5.9zm18.638 5.74h-7.054l-.162 2.712h-.899v-3.645h.484c.807-.662 1.199-2.484 1.429-4.807.231-2.415.3-6.015.369-10.548h5.764v15.355h1.13v3.645h-.9l-.161-2.712zm-1.222-15.354h-3.573c-.069 4.123-.185 7.267-.369 9.614-.207 2.437-.576 4.055-1.199 4.807h5.141V6.828zm7.057 14.648c1.544 0 2.351-1.23 2.351-1.23l.347.866s-.876 1.298-2.721 1.298c-2.466 0-3.596-2.21-3.596-5.968 0-3.76 1.429-5.969 3.389-5.969 2.006 0 3.297 2.073 2.928 6.152h-5.257c.046 3.143.876 4.851 2.559 4.851zm-2.536-5.695h4.22c.184-3.053-.738-4.42-1.914-4.42-1.222 0-2.214 1.55-2.306 4.42zm12.336.866h-3.966v5.536h-1.083V10.7h1.083v5.08h3.966V10.7h1.083v11.482h-1.083v-5.536zm3.645-5.947h1.082v4.26h.854c2.213 0 3.642 1.186 3.642 3.578 0 2.437-1.521 3.645-3.712 3.645h-1.866V10.7zm1.083 5.104v5.536h.692c1.637 0 2.743-.797 2.743-2.78 0-1.935-.968-2.756-2.628-2.756h-.807zm7.425-4.214v10.593h-1.06V10.701h4.911v.888h-3.851zm10.93 2.596c0-.593.045-1.093.092-1.572h-.069c-.162.501-.369.98-.622 1.48l-3.781 8.089h-.922V10.7h1.014v7.973c0 .615-.047 1.117-.092 1.618h.069c.161-.524.391-1.025.622-1.526l3.781-8.065H249v11.482h-1.037v-7.997z"/></g><path d="M99.88 22.36c.097.084.198.166.299.248a12.384 12.384 0 0 1-6.862 2.062c-6.845 0-12.394-5.523-12.394-12.335C80.923 5.523 86.473 0 93.318 0c2.538 0 4.897.76 6.862 2.062-.101.082-.202.163-.3.247a13.263 13.263 0 0 0-4.593 10.027 13.254 13.254 0 0 0 4.593 10.025zM108.638 0c-2.538 0-4.897.76-6.862 2.061.1.082.202.163.299.247a13.26 13.26 0 0 1 4.594 10.027c0 3.844-1.674 7.498-4.594 10.027-.097.084-.199.165-.3.247a12.382 12.382 0 0 0 6.861 2.061c6.845 0 12.395-5.523 12.395-12.335C121.032 5.523 115.483 0 108.638 0z" fill="#C4C4C4"/><path d="M100.978 2.642a11.6 11.6 0 0 0-.469.387c-2.612 2.262-4.266 5.59-4.266 9.306 0 3.715 1.654 7.045 4.266 9.306.153.133.309.262.469.387a11.6 11.6 0 0 0 .469-.387c2.612-2.262 4.265-5.59 4.265-9.306 0-3.715-1.653-7.045-4.265-9.306a10.965 10.965 0 0 0-.469-.387zM88.134 29.86v-1.992a1.184 1.184 0 0 0-1.254-1.262c-.45-.03-.879.186-1.122.564a1.171 1.171 0 0 0-1.055-.564c-.373-.019-.73.16-.935.471v-.392h-.695v3.176h.702v-1.748a.745.745 0 0 1 .78-.844c.46 0 .694.3.694.837v1.768h.701v-1.761a.748.748 0 0 1 .647-.838c.044-.006.09-.008.134-.006.473 0 .7.3.7.837v1.768l.703-.013zm10.37-3.175h-1.141v-.964h-.701v.964h-.635v.632h.648v1.46c0 .738.287 1.176 1.109 1.176a1.63 1.63 0 0 0 .867-.246l-.2-.591c-.186.11-.397.172-.613.179-.334 0-.46-.213-.46-.532v-1.448h1.134l-.008-.63zm5.921-.08a.944.944 0 0 0-.841.465v-.385h-.687v3.176h.694V28.08c0-.525.227-.817.668-.817a1.12 1.12 0 0 1 .433.08l.215-.665a1.52 1.52 0 0 0-.495-.087l.013.015zm-8.952.332a2.383 2.383 0 0 0-1.301-.331c-.808 0-1.336.385-1.336 1.016 0 .518.388.837 1.102.937l.333.046c.38.053.56.153.56.332 0 .246-.253.386-.727.386a1.713 1.713 0 0 1-1.062-.332l-.333.538a2.31 2.31 0 0 0 1.382.412c.922 0 1.455-.432 1.455-1.036 0-.604-.42-.85-1.115-.95l-.333-.046c-.3-.04-.541-.1-.541-.312s.227-.373.607-.373c.352.005.697.098 1.001.273l.308-.56zm18.596-.331a.944.944 0 0 0-.842.464v-.385h-.687v3.176h.694V28.08c0-.525.227-.817.668-.817a1.11 1.11 0 0 1 .434.08l.214-.665a1.52 1.52 0 0 0-.495-.087l.014.015zm-8.946 1.66a1.607 1.607 0 0 0 1.702 1.66c.417.022.827-.113 1.148-.378l-.333-.558c-.24.182-.533.282-.835.285a1.02 1.02 0 0 1 0-2.032 1.4 1.4 0 0 1 .835.286l.333-.559a1.675 1.675 0 0 0-1.148-.379 1.61 1.61 0 0 0-1.702 1.662v.013zm6.502 0v-1.581h-.695v.385a1.212 1.212 0 0 0-1.001-.464c-.922 0-1.669.743-1.669 1.66 0 .918.747 1.662 1.669 1.662.39.014.762-.16 1.001-.465v.386h.695v-1.583zm-2.583 0a.963.963 0 0 1 1.02-.902.96.96 0 0 1 .906 1.015.962.962 0 0 1-.958.903.957.957 0 0 1-.971-.942c0-.024 0-.05.003-.074zm-8.379-1.66a1.666 1.666 0 0 0-1.645 1.684c.012.917.77 1.65 1.692 1.638.48.024.952-.13 1.324-.432l-.333-.512c-.264.21-.591.327-.928.332a.884.884 0 0 1-.955-.778h2.37v-.266c0-.996-.621-1.66-1.516-1.66l-.009-.006zm0 .617a.79.79 0 0 1 .808.77h-1.669a.82.82 0 0 1 .848-.771h.013v.001zm17.394 1.05v-2.865h-.668v1.661a1.214 1.214 0 0 0-1.001-.464c-.922 0-1.669.743-1.669 1.66 0 .918.747 1.662 1.669 1.662a1.22 1.22 0 0 0 1.001-.465v.386h.668v-1.576zm-2.567 0a.963.963 0 0 1 1.02-.903.963.963 0 0 1 .907 1.015.962.962 0 0 1-.959.903.957.957 0 0 1-.97-.941c0-.024 0-.05.002-.075zm-23.441 0v-1.588h-.694v.385a1.213 1.213 0 0 0-1.002-.464c-.921 0-1.669.743-1.669 1.66 0 .918.748 1.662 1.67 1.662.39.014.761-.16 1-.465v.386h.695v-1.577zm-2.584 0a.963.963 0 0 1 1.02-.903.962.962 0 0 1 .906 1.015.962.962 0 0 1-.958.903.957.957 0 0 1-.977-.934c0-.028 0-.055.002-.083h.007v.001zM38.6 18.294c0-4.3-6.2-4.6-6.1-6.5 0-.6.6-1.2 1.9-1.4.6-.1 2.3-.1 4.3.7l.8-3.5c-1.2-.3-2.5-.7-4.2-.7-4.3 0-7.3 2.2-7.4 5.4 0 2.4 2.2 3.7 3.8 4.5 1.7.8 2.3 1.3 2.3 2 0 1.1-1.4 1.6-2.6 1.6-2.2 0-3.5-.6-4.5-1l-.8 3.6c1 .5 2.9.9 4.9.9 4.6 0 7.6-2.2 7.6-5.6zm-16.2-11.4l-3.6 16.9h4.3l3.6-16.9h-4.3zm-17 3.5l3.5 13.5h4.6l7-17h-4.6l-4.5 11.5-1.9-9.7c-.2-1.1-1-1.8-2-1.8H.1l-.1.5c1.5.4 3.3.9 4.3 1.5.7.3.8.6 1.1 1.5zm41.4-3.5c-.8 0-1.5.5-1.9 1.2l-6.5 15.6H43l.9-2.5h5.6l.5 2.5h4l-3.5-16.8h-3.7zm-1.7 10.9l2.3-6.3 1.3 6.3h-3.6zm143.275 26.125c2.033 0 3.967.465 5.702 1.296.273.122.547.269.818.416l-1.19 1.051-1.785-1.834-3.074 2.69-1.81-1.932-5.652 5.012 3.619 3.937-1.413 1.223 3.57 3.937-1.413 1.221 5.108 5.6 3.023-2.739 2.629 2.935c-.521.391-1.091.783-1.71 1.125a13.1 13.1 0 0 1-6.397 1.661c-7.165 0-12.991-5.745-12.991-12.811-.025-7.017 5.801-12.788 12.966-12.788zm-2.38 12.006l3.099-2.739 2.777 3.056-3.099 2.739-2.777-3.056zm2.207 5.281l3.074-2.763 2.802 3.057-3.099 2.739-2.777-3.033zm-4.413-10.49l3.099-2.738 2.777 3.056-3.1 2.739-2.776-3.056zm5.677-1.467l2.306-2.054 2.083 2.274-2.306 2.079-2.083-2.299zm4.116 9.414l2.305-2.054 2.083 2.298-2.306 2.055-2.082-2.3zm2.032 4.622l2.307-2.054 2.081 2.274-2.305 2.077-2.083-2.297zm.943-10.564l1.537-1.37 1.388 1.518-1.537 1.369-1.388-1.517zm-1.984-4.523l1.537-1.394 1.389 1.54-1.538 1.37-1.388-1.516zm3.942 9.047l1.537-1.37 1.413 1.517-1.561 1.369-1.389-1.516zm-6.917-3.398l2.306-2.055 2.082 2.274-2.305 2.054-2.083-2.273z" fill="#C4C4C4"/><mask id="a" maskUnits="userSpaceOnUse" x="89" y="49" width="15" height="13"><path d="M89.535 49.238v11.819h13.551v-11.82H89.535z" fill="#C4C4C4"/></mask><g mask="url(#a)"><path d="M96.335 52.737h-.116l-2.196 8.32h-1.795l-2.693-11.82h1.862l1.862 8.82h.116l2.161-8.82h1.48l2.312 8.82h.116l1.696-8.82h1.946l-2.695 11.82h-1.795l-2.26-8.32z" fill="#C4C4C4"/></g><path d="M105.448 56.025h3.807c-.083-1.75-.931-2.45-1.829-2.45-1.014 0-1.796.784-1.978 2.45zm5.137 3.135v1.267a5.858 5.858 0 0 1-2.943.767c-2.793 0-3.94-1.734-3.94-4.368 0-2.535 1.28-4.368 3.774-4.368 2.078 0 3.359 1.35 3.359 4.067v.617h-5.42c0 2 .814 2.884 2.527 2.884.897 0 1.729-.317 2.643-.866zm4.117.697c.532.234 1.114.268 1.531.268 1.23 0 2.16-.768 2.16-3.468 0-2.117-.765-2.8-1.878-2.8-.666 0-1.148.184-1.813.55v5.45zm.017-6.684c.498-.266 1.345-.617 2.244-.617 2.061 0 3.176 1.434 3.176 4.101 0 3.118-1.497 4.635-3.906 4.635-.882 0-2.246-.284-3.244-.819V48.84l1.73-.416v4.75zm12.903 5.376h.084l3.557-9.319h2.062v11.82h-1.795v-8.569h-.15l-3.392 8.57h-1.063l-3.394-8.37h-.149v8.37h-1.496V49.23h2.012l3.724 9.318zm13.04-1.723c0-2.25-.914-3.2-2.044-3.2-1.097 0-2.046.95-2.046 3.2 0 2.284.866 3.2 2.046 3.2 1.179 0 2.044-.916 2.044-3.2zm-5.835 0c0-2.918 1.596-4.368 3.79-4.368 2.196 0 3.791 1.45 3.791 4.368 0 2.85-1.513 4.368-3.791 4.368s-3.79-1.518-3.79-4.368zm8.896-3.133c.748-.451 2.329-1.235 4.24-1.235 1.995 0 2.742.784 2.742 2.5v6.035h-1.728v-5.65c0-1.317-.647-1.55-1.496-1.55-.664 0-1.513.3-2.028.6v6.6h-1.73v-7.3zm10.642 2.332h3.807c-.082-1.75-.931-2.45-1.829-2.45-1.014 0-1.794.784-1.978 2.45zm5.137 3.135v1.267a5.855 5.855 0 0 1-2.943.767c-2.791 0-3.939-1.734-3.939-4.368 0-2.535 1.279-4.368 3.773-4.368 2.079 0 3.36 1.35 3.36 4.067v.617h-5.421c0 2 .815 2.884 2.527 2.884.897 0 1.73-.317 2.643-.866zm7.157-6.702h1.78l-3.01 8.334c-.833 2.3-1.845 3.501-3.757 3.501v-1.366c1.131 0 1.828-.9 2.228-2.135l-3.192-8.334h1.829l2.128 6.134h.1l1.894-6.134zM107.493 68.74v-.72c.617.312 1.203.469 1.759.469.463 0 .818-.085 1.066-.256.248-.17.372-.4.372-.69 0-.29-.102-.508-.306-.653-.203-.144-.584-.323-1.14-.536-.193-.072-.316-.12-.372-.141l-.322-.134a2.155 2.155 0 0 1-.313-.15 3.687 3.687 0 0 0-.252-.152.858.858 0 0 1-.24-.18 3.55 3.55 0 0 0-.17-.201.665.665 0 0 1-.144-.242 3.03 3.03 0 0 1-.071-.28 1.77 1.77 0 0 1-.032-.343c0-.475.175-.856.524-1.146.35-.29.833-.435 1.45-.435.545 0 1.088.1 1.627.301v.761a3.53 3.53 0 0 0-1.569-.384c-.369 0-.645.077-.827.233a.778.778 0 0 0-.272.62c0 .273.091.48.272.623.182.143.507.3.976.472.803.296 1.357.564 1.659.804.303.239.455.597.455 1.07 0 .498-.208.903-.624 1.218-.415.316-.987.473-1.714.473-.666 0-1.263-.134-1.792-.402zm8.405.275h-.785l-.058-.485c-.474.391-.947.587-1.421.587-.396 0-.703-.108-.921-.323a1.094 1.094 0 0 1-.326-.816 1.315 1.315 0 0 1 .409-.962c.146-.15.366-.272.661-.364a3.558 3.558 0 0 1 1.061-.138h.512v-.225c0-.374-.068-.629-.206-.766-.138-.136-.369-.205-.694-.205-.397 0-.884.164-1.462.494v-.67c.595-.272 1.178-.41 1.751-.41.556 0 .942.115 1.156.344.215.228.322.575.322 1.037v2.902h.001zm-.859-1.916h-.438c-.903 0-1.355.27-1.355.812 0 .19.061.327.182.414.121.086.273.13.454.13.231 0 .455-.057.669-.168.215-.111.378-.24.488-.384v-.804zm2.201 3.59v-5.346a2.96 2.96 0 0 1 .859-.444c.331-.111.655-.168.975-.168 1.145 0 1.718.7 1.718 2.101 0 .725-.149 1.28-.447 1.664-.297.386-.723.577-1.28.577-.385 0-.707-.098-.966-.291v1.907h-.859zm.851-5.062v2.536c.11.105.248.184.417.237a1.5 1.5 0 0 0 .442.079.836.836 0 0 0 .714-.355c.173-.237.26-.668.26-1.292 0-.508-.089-.88-.268-1.113a.837.837 0 0 0-.699-.351 1.5 1.5 0 0 0-.866.259zm4.671-.853v4.241h-.86v-4.032l.86-.209zm-.991-1.23a.55.55 0 0 1 .169-.398.535.535 0 0 1 .785 0 .55.55 0 0 1 0 .796.54.54 0 0 1-.785 0 .551.551 0 0 1-.169-.399zm4.208 4.986c.397 0 .834-.145 1.313-.435v.636c-.44.257-.927.385-1.461.385-.672 0-1.166-.193-1.483-.578-.317-.385-.475-.923-.475-1.615 0-.658.162-1.189.487-1.589.325-.401.787-.603 1.387-.603.529 0 .939.173 1.232.52.292.346.437.852.437 1.522v.31h-2.692c0 .496.102.862.305 1.095.204.235.521.352.95.352zm-.256-3.237a.83.83 0 0 0-.653.309c-.176.206-.286.514-.33.92h1.892c-.023-.413-.119-.72-.29-.923a.778.778 0 0 0-.619-.306zm2.787 3.722v-3.664c.678-.413 1.38-.62 2.107-.62.49 0 .84.101 1.049.302.209.201.314.519.314.954v3.028h-.859v-2.836c0-.306-.064-.513-.19-.618-.127-.107-.312-.16-.554-.16-.33 0-.666.101-1.008.302v3.313h-.859v-.001zm5.629-4.082h1.306l-.207.569h-1.099v2.208c0 .558.237.837.711.837.181 0 .366-.04.554-.118v.535a2.548 2.548 0 0 1-.926.152c-.413 0-.716-.119-.908-.357-.193-.236-.289-.547-.289-.933V64.38l.859-.628v1.181h-.001zm2.987-.159v4.241h-.859v-4.032l.859-.209zm-.991-1.23c0-.151.056-.283.168-.398a.536.536 0 0 1 .785 0 .55.55 0 0 1 0 .796.538.538 0 0 1-.785 0 .554.554 0 0 1-.168-.399zm6.839 1.523v.668c-.413-.278-.832-.417-1.255-.417-.215 0-.391.041-.529.125-.138.083-.206.217-.206.4 0 .175.075.312.227.415.151.104.389.209.715.314.181.061.317.109.408.142.091.034.211.09.36.168.148.078.26.155.334.234.074.078.142.18.203.31.06.128.09.27.09.426 0 .385-.153.691-.458.92-.305.23-.714.344-1.227.344-.573 0-1.049-.123-1.429-.37v-.651c.485.29.928.434 1.331.434.605 0 .908-.2.908-.602a.45.45 0 0 0-.054-.217.587.587 0 0 0-.124-.163 1.133 1.133 0 0 0-.227-.143 2.625 2.625 0 0 0-.264-.116 32.69 32.69 0 0 1-.339-.121 7.472 7.472 0 0 1-.537-.218 2.33 2.33 0 0 1-.396-.238.885.885 0 0 1-.289-.347 1.157 1.157 0 0 1-.091-.477c0-.234.055-.435.165-.601a.924.924 0 0 1 .43-.36 2.306 2.306 0 0 1 .917-.194c.467 0 .913.11 1.337.335zm4.563 3.948h-.784l-.058-.485c-.474.391-.947.587-1.421.587-.396 0-.703-.108-.921-.323a1.098 1.098 0 0 1-.326-.816c0-.173.032-.338.095-.497.063-.16.168-.314.314-.465.146-.15.366-.272.661-.364a3.567 3.567 0 0 1 1.061-.138h.513v-.225c0-.374-.07-.629-.207-.766-.138-.136-.369-.205-.694-.205-.396 0-.884.164-1.462.494v-.67c.595-.272 1.178-.41 1.751-.41.556 0 .941.115 1.156.344.215.228.323.575.323 1.037v2.902h-.001zm-.858-1.916h-.438c-.904 0-1.355.27-1.355.812 0 .19.06.327.181.414.121.086.273.13.455.13.231 0 .454-.057.669-.168.215-.111.377-.24.488-.384v-.804zm3.018-2.166h1.305l-.207.569h-1.098v2.208c0 .558.237.837.71.837.182 0 .366-.04.554-.118v.535a2.544 2.544 0 0 1-.926.152c-.412 0-.715-.119-.908-.357-.193-.236-.29-.547-.29-.933V64.38l.86-.628v1.181z" fill="#C4C4C4"/><defs><clipPath id="clip0"><path fill="#fff" transform="translate(0 49.894)" d="M0 0h57v16H0z"/></clipPath><clipPath id="clip1"><path fill="#fff" transform="translate(148 5.894)" d="M0 0h101v19H0z"/></clipPath></defs></svg>